<?xml version="1.0" standalone="no"?>
<!DOCTYPE svg PUBLIC "-//W3C//DTD SVG 20010904//EN"
 "http://www.w3.org/TR/2001/REC-SVG-20010904/DTD/svg10.dtd">
<svg version="1.0" xmlns="http://www.w3.org/2000/svg"
 width="512.000000pt" height="512.000000pt" viewBox="0 0 512.000000 512.000000"
 preserveAspectRatio="xMidYMid meet">
<metadata>
Created by potrace 1.14, written by Peter Selinger 2001-2017
</metadata>
<g transform="translate(0.000000,512.000000) scale(0.100000,-0.100000)"
fill="#000000" stroke="none">
<path d="M2437 5099 c-133 -45 -222 -132 -267 -263 -19 -57 -20 -82 -20 -931
0 -829 1 -875 19 -927 59 -171 199 -277 373 -284 196 -8 358 109 412 297 15
50 16 148 13 930 -1 481 -6 885 -10 898 -36 125 -138 231 -272 282 -55 21
-184 20 -248 -2z m178 -273 c19 -8 44 -30 55 -48 20 -32 20 -48 20 -874 l0
-841 -23 -34 c-15 -22 -38 -39 -65 -49 -37 -13 -47 -13 -84 0 -27 10 -50 27
-65 49 l-23 34 0 841 c0 826 0 842 20 874 34 55 100 75 165 48z"/>
<path d="M1163 3915 c-77 -21 -121 -46 -185 -106 -247 -233 -477 -630 -574
-991 -25 -95 -27 -100 -48 -228 -58 -337 -30 -711 78 -1041 112 -343 288 -631
540 -886 158 -158 332 -290 511 -388 39 -20 76 -42 83 -47 6 -6 12 -7 12 -3 0
4 6 3 13 -3 41 -34 362 -147 488 -171 30 -6 65 -13 79 -16 14 -3 43 -7 65 -10
22 -3 63 -9 90 -12 68 -10 414 -10 496 -1 403 46 813 216 1143 475 103 81 300
283 383 393 336 446 495 991 450 1544 -7 82 -31 234 -47 296 -5 19 -11 47 -14
61 -2 15 -24 87 -49 161 -49 145 -120 305 -186 412 -22 37 -41 70 -41 72 0 5
-94 137 -134 189 -109 139 -214 241 -283 272 -78 37 -85 38 -188 38 -80 0 -97
-4 -155 -31 -117 -55 -194 -146 -225 -264 -40 -153 1 -282 131 -420 106 -112
206 -262 264 -398 38 -87 84 -229 95 -287 2 -16 7 -39 9 -50 17 -88 23 -293
12 -394 -25 -221 -111 -453 -235 -637 -145 -215 -317 -366 -546 -479 -213
-104 -372 -144 -600 -150 -667 -17 -1248 424 -1416 1075 -6 25 -12 52 -14 60
-4 23 -16 97 -21 128 -2 15 -4 84 -5 153 -2 368 137 718 390 984 86 90 124
168 137 277 18 151 -78 322 -218 391 -100 49 -185 59 -285 32z"/>
</g>
</svg>
